# xmcd
#
# Track frame offsets:
#	150
#	28677
#	34793
#	47328
#	57510
#	60591
#	76683
#	92172
#	101388
#	106666
#	118203
#	128222
#	145078
#	151995
#	175321
#	185434
#	198628
#	203013
#	214552
#	220604
#
# Disc length: 3105 seconds
# Revision: 0
# Processed by: cddbd v1.5.2PL0 Copyright (c) Steve Scherf et al.
# Submitted via: dBpowerAMP V12.0
#
DISCID=0e0c1f14
DTITLE=Karl May Edition - Winnetou I - IV [CD4)
DYEAR=2007
DGENRE=Hörbuch
TTITLE0=Winnetou 4
TTITLE1=Winnetou 4
TTITLE2=Winnetou 4
TTITLE3=Winnetou 4
TTITLE4=Winnetou 4
TTITLE5=Winnetou 4
TTITLE6=Winnetou 4
TTITLE7=Winnetou 4
TTITLE8=Winnetou 4
TTITLE9=Winnetou 4
TTITLE10=Halbblut
TTITLE11=Halbblut
TTITLE12=Halbblut
TTITLE13=Halbblut
TTITLE14=Halbblut
TTITLE15=Halbblut
TTITLE16=Halbblut
TTITLE17=Halbblut
TTITLE18=Halbblut
TTITLE19=Halbblut
EXTD=
EXTT0=
EXTT1=
EXTT2=
EXTT3=
EXTT4=
EXTT5=
EXTT6=
EXTT7=
EXTT8=
EXTT9=
EXTT10=
EXTT11=
EXTT12=
EXTT13=
EXTT14=
EXTT15=
EXTT16=
EXTT17=
EXTT18=
EXTT19=
PLAYORDER=
